<?xml version="1.0" encoding="UTF-8" standalone="no"?>
<!-- Created with Inkscape (http://www.inkscape.org/) -->
<svg
   xmlns:svg="http://www.w3.org/2000/svg"
   xmlns="http://www.w3.org/2000/svg"
   version="1.0"
   width="498"
   height="438"
   id="svg2">
  <defs
     id="defs5" />
  <g
     id="g2409">
    <g
       id="g2388">
      <path
         d="M 90.538961,90.775974 L 195.53572,90.775974 L 195.53572,108.31493 L 174.67858,108.31493 C 163.99531,109.93641 163.88967,120.28849 166.50163,128.22403 L 244.83442,329.92208 L 325.53734,127.03896 C 329.21104,117.08442 325.53734,109.02597 313.33118,108.07792 L 296.50325,108.07792 L 296.50325,90.775974 L 385.38312,90.775974 L 385.38312,108.07792 C 376.96916,108.31493 363.81494,104.75973 354.57143,123.12825 L 252.65585,373.76948 L 222.08117,373.76948 L 122.77273,127.98701 C 114.24026,104.64123 90.775974,108.07792 90.775974,108.07792 L 90.538961,90.775974 z"
         id="path2386"
         style="fill:#000000;stroke:none" />
      <path
         d="M 94.805195,85.087662 L 199.80195,85.087662 L 199.80195,102.62662 L 178.94481,102.62662 C 168.26154,104.2481 168.1559,114.60018 170.76786,122.53572 L 249.10065,324.23377 L 329.80357,121.35065 C 333.47727,111.39611 329.80357,103.33766 317.59741,102.38961 L 300.76948,102.38961 L 300.76948,85.087662 L 389.64935,85.087662 L 389.64935,102.38961 C 381.23539,102.62662 368.08117,99.071422 358.83766,117.43994 L 256.92208,368.08117 L 226.3474,368.08117 L 127.03896,122.2987 C 118.50649,98.952922 95.042208,102.38961 95.042208,102.38961 L 94.805195,85.087662 z"
         id="path2384"
         style="fill:#339967;stroke:none" />
    </g>
    <g
       id="g2402">
      <path
         d="M 243.25,90.874999 C 243.625,59.999999 237,48.499999 240.125,45.374999 C 241.4996,44.0004 244.71201,46.34415 248.49019,46.265925 C 250.01837,46.437699 249.23732,49.562499 250.75,49.624999 C 251.875,49.624999 255.46931,46.317221 258.5,48.124999 C 262.125,52.499999 255.25,55 256.625,100.5 L 243.25,90.874999 z"
         id="path2398"
         style="fill:#996532;stroke:#000000;stroke-width:1.5" />
      <path
         d="M 224.80681,260.47727 C 246.01948,255.61851 261.66234,235.01442 261.66234,228.00649 C 261.66234,205.1904 226.82143,212.95617 226.82143,186.52922 C 226.82143,159.96149 262.61039,151.47134 262.61039,132.25324 C 262.61039,104.96304 224.68831,108.3317 224.68831,80.465909 C 224.68831,77.737685 226.93958,59.13474 246.73052,59.13474 C 253.84486,59.13474 270.90585,63.756493 268.29871,79.991882 C 268.29871,79.991882 266.88261,84.209516 264.38798,79.754869 C 265.57305,83.665584 263.20292,84.258117 263.20292,84.258117 C 255.5,88.168831 246.25649,75.37013 244.47889,75.37013 C 242.09694,75.37013 238.19806,76.87276 238.19806,81.887987 C 238.19806,95.043417 274.93506,102.85684 274.93506,126.56493 C 274.93506,161.4531 238.90909,160.17999 238.90909,186.29221 C 238.90909,201.34507 270.55033,202.75356 270.55033,225.63636 C 270.55033,245.80016 237.61436,260.47727 224.80681,260.47727 z"
         id="path2392"
         style="fill:#339933;fill-opacity:1;stroke:#000000;stroke-width:1.5" />
      <path
         d="M 244.12338,279.2013 C 244.12338,279.2013 247.67858,279.79383 252.30033,274.93507 C 252.30033,274.93507 251.23377,239.26461 254.43344,214.37825 C 254.43344,214.37825 247.32305,209.63799 243.41234,208.45292 C 243.90555,223.68217 246.96754,266.04708 244.12338,279.2013 z"
         id="path2394"
         style="fill:#996532;stroke:#000000;stroke-width:1.5" />
      <path
         d="M 254.19643,202.57467 C 254.19643,202.57467 245.09578,197.34416 242.65828,194.34416 C 243.65828,183.11121 241.27922,152.87338 241.27922,152.87338 C 241.04221,151.21429 238.43506,148.25162 238.07954,146.47403 C 237.81455,145.14908 237.66354,142.90361 238.07955,141.37825 C 238.43507,140.07468 234.87987,136.64095 234.87987,134.26786 C 234.87987,133.08279 237.25937,130.44291 238.55357,130.83117 C 239.73863,131.18669 241.82338,135.54283 243.41233,134.74188 C 244.7159,132.60876 243.86934,114.13878 242.8198,106.18182 C 248.15259,109.61851 254.43344,114.12175 255.6185,115.78084 L 254.90747,126.44643 C 254.78896,127.51299 257.39948,128.94102 257.45241,129.99965 C 257.57092,132.36978 255.5,134.26786 255.02597,136.51948 C 255.02597,136.51948 252.59677,158.79907 253.12987,179.77435 C 254.07792,180.12987 254.79811,177.07718 255.97402,176.93019 C 256.92207,176.81168 258.18175,178.47163 258.69968,179.30032 C 258.64043,182.6185 255.69327,185.3094 254.64083,189.34374 C 254.10755,191.38798 254.13718,196.88636 254.19643,202.57467 z"
         id="path2396"
         style="fill:#996532;stroke:#000000;stroke-width:1.5" />
      <path
         d="M 260.5,70.4375 A 2.0625,2.0625 0 1 1 256.375,70.4375 A 2.0625,2.0625 0 1 1 260.5,70.4375 z"
         transform="translate(-0.625,-0.5)"
         id="path2400"
         style="fill:#000000;stroke:none" />
    </g>
  </g>
</svg>
